# xmcd CD database file
#
# Track frame offsets:
#	150
#	21200
#	43353
#	68731
#	90994
#	114168
#	134219
#	157140
#	176307
#	196223
#	217195
#	236919
#	253594
#	273968
#	292992
#
# Disc length: 4173 seconds
#
# Revision: 0
# Processed by: cddbd v1.5.1PL0 Copyright (c) Steve Scherf et al.
# Submitted via: CDex 1.51
#
DISCID=df104b0f
DTITLE=CHOCO SALSOTK - DOLLAR SALSERO - VOL.2 
DYEAR=1900
DGENRE=Salsa
TTITLE0=CALIFORNIA
TTITLE1=BASTA
TTITLE2=MUJER AJENA
TTITLE3=SIN MENTIRA
TTITLE4=MAGIA ROSA
TTITLE5=DIME QUIEN
TTITLE6=A MIS HIJOS
TTITLE7=EXCELENTE AMANTE
TTITLE8=EL AMOR MAS BONITO
TTITLE9=ALMAS GEMELAS
TTITLE10=ME ESTOY ENAMORANDO
TTITLE11=MALA MAÑA
TTITLE12=BOMBA GARAMBOMBA
TTITLE13=SALSA RAY
TTITLE14=FUISTE UN TROZO DE HIELO
EXTD=
EXTT0=
EXTT1=
EXTT2=
EXTT3=
EXTT4=
EXTT5=
EXTT6=
EXTT7=
EXTT8=
EXTT9=
EXTT10=
EXTT11=
EXTT12=
EXTT13=
EXTT14=
PLAYORDER=
